<svg xmlns="http://www.w3.org/2000/svg" xmlns:xlink="http://www.w3.org/1999/xlink" width="825.673" height="161.343" viewBox="0 0 825.673 161.343">
  <defs>
    <linearGradient id="linear-gradient" x1="0.018" y1="0.817" x2="0.865" y2="0.183" gradientUnits="objectBoundingBox">
      <stop offset="0" stop-color="#ff6400"/>
      <stop offset="1" stop-color="#ffff64"/>
    </linearGradient>
    <linearGradient id="linear-gradient-2" x1="0.135" y1="0.183" x2="0.982" y2="0.817" gradientUnits="objectBoundingBox">
      <stop offset="0" stop-color="#96ff96"/>
      <stop offset="1" stop-color="#4a72b0"/>
    </linearGradient>
  </defs>
  <g id="Grupo_882" data-name="Grupo 882" transform="translate(-2958 -2513.329)">
    <g id="Grupo_881" data-name="Grupo 881" transform="translate(2870.836 2417.897)">
      <g id="Grupo_878" data-name="Grupo 878">
        <g id="Grupo_877" data-name="Grupo 877">
          <path id="Trazado_5655" data-name="Trazado 5655" d="M207.962,210.99,160.31,183.479a8.517,8.517,0,0,1,0-14.753l47.652-27.511,47.65,27.512a8.517,8.517,0,0,1,0,14.752Z" fill="#fff"/>
        </g>
        <path id="Trazado_5656" data-name="Trazado 5656" d="M160.31,168.726l47.652-27.511L132.2,97.473a14.563,14.563,0,0,0-18.63,3.3,120.669,120.669,0,0,0,0,150.667,14.563,14.563,0,0,0,18.63,3.3l75.764-43.742L160.31,183.479A8.517,8.517,0,0,1,160.31,168.726Z" fill="url(#linear-gradient)"/>
        <path id="Trazado_5657" data-name="Trazado 5657" d="M207.962,141.215l47.65,27.512a8.517,8.517,0,0,1,0,14.752l-47.65,27.511,75.84,43.787a14.562,14.562,0,0,0,18.626-3.291,120.669,120.669,0,0,0,0-150.767A14.563,14.563,0,0,0,283.8,97.428Z" fill="url(#linear-gradient-2)"/>
      </g>
      <g id="Grupo_880" data-name="Grupo 880">
        <path id="Trazado_5658" data-name="Trazado 5658" d="M443.283,215.28,419.561,239h75.605V215.28Z" fill="#fff"/>
        <path id="Trazado_5659" data-name="Trazado 5659" d="M432.618,198.086v-87.4H404.405v59.185Z" fill="#fff"/>
        <g id="Grupo_879" data-name="Grupo 879">
          <path id="Trazado_5660" data-name="Trazado 5660" d="M595.448,239H571.186v-12.94h-.54a33.141,33.141,0,0,1-28.4,15.458c-27.137,0-33.966-15.277-33.966-38.28V146.087h25.521v52.478c0,15.276,4.492,22.825,16.353,22.825,13.838,0,19.769-7.728,19.769-26.6v-48.7h25.52Z" fill="#fff"/>
          <path id="Trazado_5661" data-name="Trazado 5661" d="M681.176,227.139h-.36c-5.93,10.066-16.353,14.38-28.215,14.38-28.035,0-41.694-24.082-41.694-49.782,0-24.981,13.839-48.164,41.154-48.164,10.963,0,21.747,4.671,27.5,13.838h.359V110.686h25.519V239H681.176ZM658.891,162.8c-16.714,0-22.465,14.377-22.465,29.653,0,14.558,6.649,29.831,22.465,29.831,16.893,0,21.925-14.734,21.925-30.01C680.816,177.179,675.426,162.8,658.891,162.8Z" fill="#fff"/>
          <path id="Trazado_5662" data-name="Trazado 5662" d="M811.834,239H787.572v-12.94h-.54a33.14,33.14,0,0,1-28.395,15.458c-27.137,0-33.966-15.277-33.966-38.28V146.087h25.521v52.478c0,15.276,4.492,22.825,16.353,22.825,13.838,0,19.77-7.728,19.77-26.6v-48.7h25.519Z" fill="#fff"/>
          <path id="Trazado_5663" data-name="Trazado 5663" d="M851.016,208.81c.179,11.141,9.524,15.633,19.588,15.633,7.369,0,16.714-2.875,16.714-11.859,0-7.727-10.6-10.423-28.933-14.377-14.737-3.235-29.474-8.448-29.474-24.8,0-23.722,20.488-29.832,40.436-29.832,20.308,0,39,6.828,40.974,29.653h-24.26c-.72-9.884-8.268-12.58-17.433-12.58-5.751,0-14.2,1.078-14.2,8.627,0,9.163,14.378,10.423,28.935,13.837,14.915,3.414,29.472,8.806,29.472,26.06,0,24.439-21.206,32.349-42.413,32.349-21.564,0-42.592-8.088-43.67-32.709Z" fill="#fff"/>
        </g>
      </g>
    </g>
  </g>
</svg>
